<svg width="46" height="43" viewBox="0 0 46 43" fill="none" xmlns="http://www.w3.org/2000/svg">
<path d="M12.9825 23.6324C13.9444 24.1998 15.0188 25.0215 16.1809 25.4883C18.623 26.4515 21.0944 27.2963 23.5657 28.1412C28.2606 29.7186 33.0085 31.2841 38.1222 32.9915C36.1705 29.7391 32.6183 27.7946 32.3797 23.4887C33.0993 23.7191 33.6533 23.707 33.8188 23.9495C36.4435 27.7221 39.7975 30.7728 43.3691 33.5513C46.2796 35.8629 45.9645 37.4423 42.6013 38.5851C39.079 39.7636 35.64 41.3146 32.1534 42.6527C31.594 42.8895 30.9101 42.8188 30.1559 42.9315C30.7048 40.4057 30.7048 40.4057 38.1769 36.7237C37.3925 36.4519 36.779 36.1978 36.1774 35.997C30.0141 34.0771 23.8628 32.2104 17.7288 30.1722C15.7411 29.4987 13.8119 28.5886 12.0591 27.4714C8.94294 25.4853 8.41847 22.6405 10.5873 19.6408C11.6923 18.1084 13.1868 16.8243 14.7051 15.6467C16.4116 14.3152 18.3487 13.2675 20.1321 12.0306C21.3798 11.137 22.5388 10.0955 23.8158 9.08362C22.8107 7.57574 21.4484 7.20956 20.1684 6.71322C14.7475 4.62743 9.18689 3.41117 3.38598 2.86338C2.70212 2.79267 1.98902 2.84027 1.3225 2.59802C0.956775 2.45621 0.560801 1.92995 0.46563 1.50412C0.418045 1.29121 0.906128 0.735023 1.21237 0.610692C2.10186 0.356006 3.12119 0.184083 4.01714 0.207391C10.4479 0.334989 16.6804 1.56873 22.6207 3.98554C23.8358 4.4405 24.9925 5.13208 26.0019 5.91244C27.8261 7.34902 28.1657 9.1174 26.7371 10.9456C25.5673 12.4366 24.0609 13.6675 22.5307 14.7919C20.2884 16.4667 17.8688 17.8458 15.6265 19.5205C14.4437 20.4555 13.2317 21.5089 12.9825 23.6324Z" fill="#808080"/>
</svg>
