<svg width="90" height="89" viewBox="0 0 90 89" fill="none" xmlns="http://www.w3.org/2000/svg">
<path d="M58.6094 61.6393C59.1013 60.1766 60.9769 59.5765 62.0369 60.7168C64.1392 62.9718 66.1142 65.3473 68.0716 67.7312C68.758 68.5653 68.4994 69.8135 67.6984 70.5164C66.8613 71.2528 65.5821 71.2968 64.7991 70.4264C62.7886 68.1866 60.8509 65.885 58.9103 63.5848C58.4399 63.0282 58.3653 62.341 58.6094 61.6393Z" fill="#E69A47"/>
<path d="M11.106 49.5144C11.3977 48.7395 11.9393 48.2493 12.7568 48.0942C15.5639 47.5613 18.3683 47.008 21.1827 46.5166C22.4749 46.2901 23.5226 47.0299 23.7611 48.2049C24.001 49.3901 23.3143 50.4733 22.0171 50.7346C19.2167 51.3039 16.4096 51.844 13.5919 52.3173C11.8257 52.6131 10.543 51.1102 11.106 49.5144Z" fill="#E69A47"/>
<path d="M21.9012 18.7821C22.4546 17.2899 24.3284 16.8399 25.443 18.0601C27.4456 20.2533 29.3612 22.5278 31.2549 24.8164C32.0139 25.7343 31.8348 26.957 30.996 27.705C30.122 28.4843 28.8374 28.5021 28.0167 27.5868C26.0363 25.3722 24.1191 23.1021 22.1953 20.8369C21.6864 20.2377 21.6443 19.5206 21.8983 18.7835L21.9012 18.7821Z" fill="#E69A47"/>
<path d="M37.0394 11.6082C37.4146 10.6367 38.0567 10.1234 38.9766 10.099C39.9255 10.0751 40.8373 10.4683 41.0433 11.4107C41.719 14.4963 42.3116 17.6038 42.8199 20.723C42.9955 21.8005 42.0889 22.7142 41.0223 22.8863C40.0044 23.0513 38.9071 22.5151 38.6886 21.4906C38.0378 18.438 37.5005 15.3597 36.9414 12.2883C36.8968 12.0417 37.0136 11.7644 37.0394 11.6082Z" fill="#E69A47"/>
<path d="M47.4428 67.0759C47.8321 66.0437 48.4845 65.5632 49.4025 65.5235C50.369 65.484 51.2529 65.9013 51.4583 66.8387C52.1339 69.9243 52.7265 73.0318 53.2305 76.1494C53.4067 77.232 52.4906 78.1521 51.4365 78.3092C50.3825 78.4663 49.2819 77.8634 49.0604 76.799C48.439 73.815 47.9085 70.8144 47.3649 67.8165C47.3136 67.5336 47.4245 67.2177 47.4428 67.0759Z" fill="#E69A47"/>
<path d="M27.7579 57.7553C29.1938 58.2961 29.6904 60.1547 28.5327 61.2159C26.29 63.2764 23.9531 65.2382 21.6008 67.1751C20.7703 67.858 19.5188 67.6225 18.8071 66.8329C18.0697 66.0125 18.0036 64.7061 18.8659 63.9324C21.1315 61.897 23.4647 59.9315 25.8015 57.9769C26.3557 57.513 27.0655 57.478 27.7579 57.7553Z" fill="#E69A47"/>
<path d="M19.239 32.844C20.5348 33.2992 21.8398 33.7285 23.1213 34.2175C24.4829 34.7347 25.0208 35.7839 24.6113 36.9913C24.1995 38.2052 23.1089 38.7431 21.7499 38.2877C19.1107 37.4019 16.4859 36.475 13.8725 35.523C12.5192 35.0306 11.9682 33.9355 12.368 32.749C12.7815 31.5235 13.923 31.0204 15.3528 31.4887C16.6563 31.915 17.9446 32.3918 19.2404 32.847L19.239 32.844Z" fill="#E69A47"/>
<path d="M52.4106 16.8666C52.8278 15.6789 53.2342 14.4874 53.6636 13.3065C54.2501 11.6922 55.2821 11.0511 56.566 11.485C57.8549 11.9183 58.306 13.0902 57.7575 14.6862C56.9261 17.1015 56.0774 19.5107 55.2179 21.9161C54.6325 23.555 53.627 24.1691 52.3236 23.7283C50.9792 23.273 50.5754 22.1396 51.1612 20.4304C51.5676 19.2389 51.9948 18.0572 52.412 16.8695L52.4106 16.8666Z" fill="#E69A47"/>
<path d="M33.6886 70.1792C34.1559 68.8487 34.5959 67.5062 35.1 66.1887C35.6186 64.83 36.6751 64.2922 37.876 64.6995C39.0877 65.1106 39.6271 66.2041 39.1708 67.5652C38.2851 70.2044 37.3604 72.8299 36.4054 75.4448C35.9109 76.7973 34.8172 77.3439 33.6286 76.9434C32.4053 76.5307 31.9238 75.3968 32.3596 73.9556C32.3825 73.8834 32.4084 73.8099 32.4334 73.7385C32.8506 72.5508 33.2671 71.3653 33.6842 70.1776L33.6886 70.1792Z" fill="#E69A47"/>
<path d="M72.496 51.5517C73.7551 51.994 75.0225 52.4124 76.271 52.885C77.6773 53.413 78.2535 54.5195 77.8097 55.7343C77.3789 56.9123 76.2656 57.418 74.901 56.9581C72.264 56.0658 69.6362 55.1476 67.0228 54.1883C65.6776 53.6939 65.1616 52.5892 65.6015 51.3852C66.0384 50.1898 67.1165 49.7082 68.5002 50.1554C69.8421 50.5903 71.1634 51.0836 72.4968 51.5495L72.496 51.5517Z" fill="#E69A47"/>
</svg>
