<svg width="30" height="29" viewBox="0 0 30 29" fill="none" xmlns="http://www.w3.org/2000/svg">
<path d="M14.4218 1.28578C14.6817 0.252638 16.1617 0.288059 16.3719 1.33245L18.0225 9.53346C18.0957 9.89727 18.3643 10.1906 18.7203 10.2954L29.2219 13.3876C30.2168 13.6805 30.163 15.1075 29.1489 15.3247L18.7944 17.542C18.3991 17.6266 18.0937 17.9409 18.0204 18.3384L16.3746 27.2594C16.1777 28.3265 14.6606 28.36 14.4168 27.3026L12.3396 18.2952C12.2531 17.9203 11.9593 17.6283 11.5838 17.5442L1.6728 15.3231C0.672268 15.0989 0.617116 13.6936 1.597 13.3916L11.6601 10.2908C11.9941 10.1878 12.2502 9.91802 12.3355 9.57908L14.4218 1.28578Z" fill="#E69A47"/>
</svg>
